<?xml version="1.0" standalone="no"?>
<!DOCTYPE svg PUBLIC "-//W3C//DTD SVG 20010904//EN"
 "http://www.w3.org/TR/2001/REC-SVG-20010904/DTD/svg10.dtd">
<svg version="1.0" xmlns="http://www.w3.org/2000/svg"
 width="99.000000pt" height="99.000000pt" viewBox="0 0 99.000000 99.000000"
 preserveAspectRatio="xMidYMid meet">

<g transform="translate(0.000000,99.000000) scale(0.100000,-0.100000)"
fill="#000000" stroke="none">
<path d="M215 905 c-17 -16 -25 -35 -25 -60 l0 -35 -76 0 c-114 0 -114 0 -114
-130 0 -99 2 -111 20 -122 19 -12 20 -24 20 -243 0 -166 3 -234 12 -243 9 -9
90 -12 305 -12 250 0 293 2 293 15 0 11 -17 15 -72 17 l-73 3 -3 149 c-1 90
-7 155 -14 163 -8 10 -50 13 -169 13 -146 0 -159 -1 -169 -19 -5 -11 -10 -84
-10 -166 l0 -146 -27 3 -28 3 -3 228 -2 227 415 0 415 0 -2 -227 -3 -228 -58
-5 c-31 -3 -58 -9 -60 -15 -3 -15 132 -19 149 -4 11 9 14 56 14 243 0 220 1
232 20 244 18 11 20 23 20 122 0 130 0 130 -117 130 l-78 0 -1 35 c-2 82 -97
116 -154 55 l-28 -30 -119 0 -118 0 -28 30 c-38 40 -96 42 -132 5z m110 -41
c5 -10 15 -22 20 -26 6 -4 73 -8 149 -8 l140 0 31 34 c24 27 37 34 54 29 35
-9 48 -48 29 -81 -14 -24 -14 -30 -2 -46 19 -27 18 -50 -6 -71 -25 -23 -67
-13 -82 20 -11 25 -11 25 -161 25 l-151 0 -26 -32 c-22 -26 -31 -30 -53 -24
-32 8 -45 47 -27 81 9 17 9 28 1 43 -17 32 -13 59 10 76 25 17 58 8 74 -20z
m-135 -128 c0 -42 31 -82 69 -91 33 -7 88 16 98 41 4 11 31 14 132 14 122 0
128 -1 151 -24 30 -33 71 -41 108 -22 33 17 57 65 47 95 -6 20 -3 21 74 21
l81 0 0 -90 0 -90 -455 0 -455 0 0 90 0 90 75 0 75 0 0 -34z m270 -376 l0 -30
-140 0 c-140 0 -140 0 -140 23 0 13 3 27 7 30 3 4 66 7 140 7 l133 0 0 -30z
m-160 -170 l0 -101 -57 3 -58 3 -3 98 -3 97 61 0 60 0 0 -100z m160 0 l0 -101
-57 3 -58 3 -3 98 -3 97 61 0 60 0 0 -100z"/>
<path d="M592 468 c-19 -19 -16 -212 4 -232 21 -22 226 -23 243 -2 8 9 11 52
9 127 l-3 114 -120 3 c-85 2 -124 -1 -133 -10z m218 -118 l0 -90 -95 0 -95 0
0 90 0 90 95 0 95 0 0 -90z"/>
<path d="M700 75 c0 -10 7 -15 18 -13 21 4 19 22 -2 26 -10 2 -16 -3 -16 -13z"/>
</g>
</svg>
